<svg xmlns="http://www.w3.org/2000/svg" xmlns:xlink="http://www.w3.org/1999/xlink" width="1040" zoomAndPan="magnify" viewBox="0 0 705 591.000005" height="888" preserveAspectRatio="xMidYMid meet" version="1.0"><defs><g/></defs><g fill="#05828e" fill-opacity="1"><g transform="translate(101.831263, 398.444771)"><g><path d="M 134.796875 78.921875 C 133.753906 78.921875 132.773438 78.921875 131.859375 78.921875 C 130.953125 78.921875 129.976562 78.789062 128.9375 78.53125 C 109.925781 74.625 95.273438 69.21875 84.984375 62.3125 C 74.691406 55.414062 67.523438 47.015625 63.484375 37.109375 C 59.453125 27.210938 57.4375 16.144531 57.4375 3.90625 L 58.21875 -35.953125 C 58.21875 -45.847656 56.71875 -53.921875 53.71875 -60.171875 C 50.726562 -66.421875 46.628906 -71.039062 41.421875 -74.03125 C 36.210938 -77.03125 30.21875 -78.660156 23.4375 -78.921875 L 21.875 -78.921875 C 16.925781 -78.921875 12.691406 -80.613281 9.171875 -84 C 5.660156 -87.394531 3.90625 -91.695312 3.90625 -96.90625 C 3.90625 -102.113281 5.660156 -106.410156 9.171875 -109.796875 C 12.691406 -113.179688 16.925781 -114.875 21.875 -114.875 L 24.21875 -114.875 C 30.738281 -115.394531 36.535156 -117.148438 41.609375 -120.140625 C 46.691406 -123.140625 50.726562 -127.765625 53.71875 -134.015625 C 56.71875 -140.273438 58.21875 -148.222656 58.21875 -157.859375 L 57.4375 -197.71875 C 57.4375 -206.832031 58.539062 -215.359375 60.75 -223.296875 C 62.96875 -231.242188 66.679688 -238.34375 71.890625 -244.59375 C 77.097656 -250.851562 84.328125 -256.328125 93.578125 -261.015625 C 102.828125 -265.703125 114.613281 -269.476562 128.9375 -272.34375 C 136.238281 -273.644531 141.710938 -272.40625 145.359375 -268.625 C 149.003906 -264.851562 150.828125 -260.363281 150.828125 -255.15625 C 150.828125 -251.757812 149.585938 -248.628906 147.109375 -245.765625 C 144.640625 -242.898438 141.445312 -240.816406 137.53125 -239.515625 C 127.113281 -235.867188 119.300781 -231.894531 114.09375 -227.59375 C 108.882812 -223.300781 105.429688 -218.222656 103.734375 -212.359375 C 102.046875 -206.503906 101.203125 -199.40625 101.203125 -191.0625 L 101.984375 -150.4375 C 101.984375 -135.320312 98.203125 -123.53125 90.640625 -115.0625 C 83.085938 -106.601562 72.800781 -100.289062 59.78125 -96.125 L 59.78125 -97.6875 C 72.800781 -93.519531 83.085938 -87.203125 90.640625 -78.734375 C 98.203125 -70.265625 101.984375 -58.476562 101.984375 -43.375 L 101.203125 -2.734375 C 101.203125 5.335938 102.046875 12.238281 103.734375 17.96875 C 105.429688 23.695312 108.882812 28.710938 114.09375 33.015625 C 119.300781 37.316406 127.113281 41.550781 137.53125 45.71875 C 146.394531 49.101562 150.828125 54.570312 150.828125 62.125 C 150.828125 66.550781 149.265625 70.457031 146.140625 73.84375 C 143.015625 77.226562 139.234375 78.921875 134.796875 78.921875 Z M 134.796875 78.921875 "/></g></g></g><g fill="#ffffff" fill-opacity="1"><g transform="translate(251.179318, 433.932909)"><g><path d="M 1.421875 0 L 83.140625 -182.546875 L 77.125 -198.46875 C 72.164062 -210.738281 66.859375 -218.523438 61.203125 -221.828125 C 55.546875 -225.128906 48 -226.78125 38.5625 -226.78125 C 35.5 -226.78125 32.375 -226.539062 29.1875 -226.0625 C 26 -225.59375 23.226562 -225.125 20.875 -224.65625 L 20.875 -268.171875 C 23.9375 -268.878906 28.414062 -269.523438 34.3125 -270.109375 C 40.207031 -270.703125 45.28125 -271 49.53125 -271 C 64.625 -271 76.945312 -268.578125 86.5 -263.734375 C 96.050781 -258.898438 103.890625 -251.828125 110.015625 -242.515625 C 116.148438 -233.203125 121.578125 -222.054688 126.296875 -209.078125 L 174.765625 -75.703125 C 179.953125 -61.085938 184.84375 -51.597656 189.4375 -47.234375 C 194.039062 -42.867188 198.820312 -40.6875 203.78125 -40.6875 C 207.082031 -40.6875 211.09375 -41.273438 215.8125 -42.453125 L 215.8125 -1.765625 C 212.976562 -0.347656 208.316406 0.882812 201.828125 1.9375 C 195.347656 3 189.863281 3.53125 185.375 3.53125 C 170.988281 3.53125 160.082031 -0.0625 152.65625 -7.25 C 145.226562 -14.445312 139.390625 -23.941406 135.140625 -35.734375 L 118.515625 -82.78125 C 115.921875 -90.332031 113.441406 -97.703125 111.078125 -104.890625 C 108.722656 -112.085938 106.957031 -118.28125 105.78125 -123.46875 L 104.71875 -123.46875 C 102.832031 -117.332031 100.769531 -110.609375 98.53125 -103.296875 C 96.289062 -95.992188 93.988281 -89.507812 91.625 -83.84375 L 55.890625 0 Z M 1.421875 0 "/></g></g></g><g fill="#05828e" fill-opacity="1"><g transform="translate(458.265446, 398.444771)"><g><path d="M 21.09375 78.53125 C 16.144531 78.53125 12.367188 76.378906 9.765625 72.078125 C 7.160156 67.785156 5.859375 63.945312 5.859375 60.5625 C 5.859375 56.914062 7.09375 53.722656 9.5625 50.984375 C 12.039062 48.253906 15.234375 46.238281 19.140625 44.9375 C 29.828125 41.289062 37.707031 37.316406 42.78125 33.015625 C 47.863281 28.710938 51.25 23.566406 52.9375 17.578125 C 54.632812 11.585938 55.484375 4.554688 55.484375 -3.515625 L 54.703125 -44.15625 C 54.703125 -59.519531 58.539062 -71.367188 66.21875 -79.703125 C 73.90625 -88.046875 84.132812 -94.300781 96.90625 -98.46875 L 96.90625 -96.90625 C 84.132812 -101.332031 73.90625 -107.710938 66.21875 -116.046875 C 58.539062 -124.378906 54.703125 -136.101562 54.703125 -151.21875 L 55.484375 -191.84375 C 55.484375 -200.1875 54.632812 -207.15625 52.9375 -212.75 C 51.25 -218.351562 47.800781 -223.367188 42.59375 -227.796875 C 37.382812 -232.222656 29.566406 -236.390625 19.140625 -240.296875 C 10.285156 -243.679688 5.859375 -249.15625 5.859375 -256.71875 C 5.859375 -261.144531 7.421875 -265.050781 10.546875 -268.4375 C 13.671875 -271.820312 17.445312 -273.515625 21.875 -273.515625 C 22.914062 -273.515625 23.890625 -273.515625 24.796875 -273.515625 C 25.710938 -273.515625 26.691406 -273.382812 27.734375 -273.125 C 46.753906 -269.476562 61.410156 -264.132812 71.703125 -257.09375 C 81.992188 -250.0625 89.15625 -241.597656 93.1875 -231.703125 C 97.226562 -221.804688 99.25 -210.738281 99.25 -198.5 L 98.46875 -158.640625 C 98.46875 -148.742188 99.960938 -140.664062 102.953125 -134.40625 C 105.953125 -128.15625 110.117188 -123.53125 115.453125 -120.53125 C 120.796875 -117.539062 126.722656 -115.914062 133.234375 -115.65625 L 134.796875 -115.65625 C 139.753906 -115.65625 143.988281 -113.960938 147.5 -110.578125 C 151.019531 -107.191406 152.78125 -102.894531 152.78125 -97.6875 C 152.78125 -92.476562 151.019531 -88.175781 147.5 -84.78125 C 143.988281 -81.394531 139.753906 -79.703125 134.796875 -79.703125 L 132.453125 -79.703125 C 125.941406 -79.441406 120.144531 -77.75 115.0625 -74.625 C 109.988281 -71.5 105.953125 -66.875 102.953125 -60.75 C 99.960938 -54.632812 98.46875 -46.628906 98.46875 -36.734375 L 99.25 3.125 C 99.25 12.238281 98.207031 20.769531 96.125 28.71875 C 94.039062 36.664062 90.328125 43.765625 84.984375 50.015625 C 79.640625 56.265625 72.34375 61.734375 63.09375 66.421875 C 53.851562 71.109375 42.066406 74.882812 27.734375 77.75 C 26.691406 78.007812 25.710938 78.203125 24.796875 78.328125 C 23.890625 78.460938 22.65625 78.53125 21.09375 78.53125 Z M 21.09375 78.53125 "/></g></g></g></svg>