<svg xmlns="http://www.w3.org/2000/svg" xmlns:xlink="http://www.w3.org/1999/xlink" width="500" zoomAndPan="magnify" viewBox="0 0 375 374.999991" height="500" preserveAspectRatio="xMidYMid meet" version="1.0"><defs><g/></defs><g fill="#05828e" fill-opacity="1"><g transform="translate(105.584491, 172.935975)"><g><path d="M 45.28125 26.515625 C 44.925781 26.515625 44.597656 26.515625 44.296875 26.515625 C 43.992188 26.515625 43.664062 26.46875 43.3125 26.375 C 36.925781 25.0625 32.003906 23.242188 28.546875 20.921875 C 25.085938 18.609375 22.679688 15.789062 21.328125 12.46875 C 19.972656 9.144531 19.296875 5.425781 19.296875 1.3125 L 19.5625 -12.078125 C 19.5625 -15.398438 19.054688 -18.109375 18.046875 -20.203125 C 17.035156 -22.304688 15.65625 -23.859375 13.90625 -24.859375 C 12.15625 -25.867188 10.144531 -26.421875 7.875 -26.515625 L 7.34375 -26.515625 C 5.6875 -26.515625 4.265625 -27.082031 3.078125 -28.21875 C 1.898438 -29.351562 1.3125 -30.796875 1.3125 -32.546875 C 1.3125 -34.296875 1.898438 -35.738281 3.078125 -36.875 C 4.265625 -38.019531 5.6875 -38.59375 7.34375 -38.59375 L 8.140625 -38.59375 C 10.328125 -38.757812 12.269531 -39.347656 13.96875 -40.359375 C 15.675781 -41.367188 17.035156 -42.921875 18.046875 -45.015625 C 19.054688 -47.117188 19.5625 -49.789062 19.5625 -53.03125 L 19.296875 -66.40625 C 19.296875 -69.46875 19.664062 -72.332031 20.40625 -75 C 21.15625 -77.675781 22.40625 -80.0625 24.15625 -82.15625 C 25.90625 -84.257812 28.332031 -86.097656 31.4375 -87.671875 C 34.539062 -89.242188 38.5 -90.515625 43.3125 -91.484375 C 45.757812 -91.921875 47.59375 -91.503906 48.8125 -90.234375 C 50.039062 -88.960938 50.65625 -87.453125 50.65625 -85.703125 C 50.65625 -84.566406 50.238281 -83.515625 49.40625 -82.546875 C 48.582031 -81.585938 47.515625 -80.890625 46.203125 -80.453125 C 42.703125 -79.234375 40.078125 -77.898438 38.328125 -76.453125 C 36.578125 -75.003906 35.414062 -73.296875 34.84375 -71.328125 C 34.28125 -69.359375 34 -66.976562 34 -64.1875 L 34.25 -50.53125 C 34.25 -45.457031 32.976562 -41.5 30.4375 -38.65625 C 27.90625 -35.8125 24.453125 -33.6875 20.078125 -32.28125 L 20.078125 -32.8125 C 24.453125 -31.414062 27.90625 -29.296875 30.4375 -26.453125 C 32.976562 -23.609375 34.25 -19.644531 34.25 -14.5625 L 34 -0.921875 C 34 1.796875 34.28125 4.113281 34.84375 6.03125 C 35.414062 7.957031 36.578125 9.640625 38.328125 11.078125 C 40.078125 12.523438 42.703125 13.953125 46.203125 15.359375 C 49.171875 16.492188 50.65625 18.332031 50.65625 20.875 C 50.65625 22.351562 50.128906 23.660156 49.078125 24.796875 C 48.035156 25.941406 46.769531 26.515625 45.28125 26.515625 Z M 45.28125 26.515625 "/></g></g></g><g fill="#ffffff" fill-opacity="1"><g transform="translate(151.885526, 184.545661)"><g><path d="M 0.46875 0 L 27.921875 -61.3125 L 25.90625 -66.65625 C 24.238281 -70.78125 22.453125 -73.394531 20.546875 -74.5 C 18.648438 -75.613281 16.117188 -76.171875 12.953125 -76.171875 C 11.921875 -76.171875 10.867188 -76.085938 9.796875 -75.921875 C 8.734375 -75.765625 7.804688 -75.609375 7.015625 -75.453125 L 7.015625 -90.078125 C 8.046875 -90.304688 9.550781 -90.519531 11.53125 -90.71875 C 13.507812 -90.914062 15.210938 -91.015625 16.640625 -91.015625 C 21.703125 -91.015625 25.835938 -90.203125 29.046875 -88.578125 C 32.253906 -86.960938 34.890625 -84.585938 36.953125 -81.453125 C 39.015625 -78.328125 40.835938 -74.585938 42.421875 -70.234375 L 58.703125 -25.421875 C 60.441406 -20.515625 62.082031 -17.328125 63.625 -15.859375 C 65.175781 -14.398438 66.78125 -13.671875 68.4375 -13.671875 C 69.550781 -13.671875 70.898438 -13.867188 72.484375 -14.265625 L 72.484375 -0.59375 C 71.535156 -0.113281 69.972656 0.300781 67.796875 0.65625 C 65.617188 1.007812 63.773438 1.1875 62.265625 1.1875 C 57.429688 1.1875 53.765625 -0.0195312 51.265625 -2.4375 C 48.773438 -4.851562 46.816406 -8.039062 45.390625 -12 L 39.8125 -27.8125 C 38.9375 -30.34375 38.101562 -32.816406 37.3125 -35.234375 C 36.519531 -37.648438 35.925781 -39.726562 35.53125 -41.46875 L 35.171875 -41.46875 C 34.535156 -39.40625 33.84375 -37.144531 33.09375 -34.6875 C 32.34375 -32.238281 31.570312 -30.0625 30.78125 -28.15625 L 18.78125 0 Z M 0.46875 0 "/></g></g></g><g fill="#05828e" fill-opacity="1"><g transform="translate(216.785441, 172.935975)"><g><path d="M 7.09375 26.375 C 5.425781 26.375 4.15625 25.648438 3.28125 24.203125 C 2.40625 22.765625 1.96875 21.476562 1.96875 20.34375 C 1.96875 19.113281 2.382812 18.039062 3.21875 17.125 C 4.050781 16.207031 5.125 15.53125 6.4375 15.09375 C 10.019531 13.863281 12.664062 12.523438 14.375 11.078125 C 16.082031 9.640625 17.21875 7.914062 17.78125 5.90625 C 18.351562 3.894531 18.640625 1.53125 18.640625 -1.1875 L 18.375 -14.828125 C 18.375 -19.992188 19.664062 -23.972656 22.25 -26.765625 C 24.832031 -29.566406 28.265625 -31.671875 32.546875 -33.078125 L 32.546875 -32.546875 C 28.265625 -34.035156 24.832031 -36.179688 22.25 -38.984375 C 19.664062 -41.785156 18.375 -45.722656 18.375 -50.796875 L 18.640625 -64.4375 C 18.640625 -67.238281 18.351562 -69.578125 17.78125 -71.453125 C 17.21875 -73.335938 16.0625 -75.023438 14.3125 -76.515625 C 12.5625 -78.003906 9.9375 -79.40625 6.4375 -80.71875 C 3.457031 -81.851562 1.96875 -83.691406 1.96875 -86.234375 C 1.96875 -87.722656 2.492188 -89.035156 3.546875 -90.171875 C 4.597656 -91.304688 5.863281 -91.875 7.34375 -91.875 C 7.695312 -91.875 8.023438 -91.875 8.328125 -91.875 C 8.640625 -91.875 8.96875 -91.832031 9.3125 -91.75 C 15.707031 -90.519531 20.628906 -88.722656 24.078125 -86.359375 C 27.535156 -83.992188 29.941406 -81.148438 31.296875 -77.828125 C 32.660156 -74.503906 33.34375 -70.785156 33.34375 -66.671875 L 33.078125 -53.28125 C 33.078125 -49.957031 33.578125 -47.242188 34.578125 -45.140625 C 35.585938 -43.046875 36.988281 -41.492188 38.78125 -40.484375 C 40.570312 -39.484375 42.5625 -38.9375 44.75 -38.84375 L 45.28125 -38.84375 C 46.945312 -38.84375 48.367188 -38.273438 49.546875 -37.140625 C 50.722656 -36.003906 51.3125 -34.5625 51.3125 -32.8125 C 51.3125 -31.0625 50.722656 -29.617188 49.546875 -28.484375 C 48.367188 -27.347656 46.945312 -26.78125 45.28125 -26.78125 L 44.5 -26.78125 C 42.3125 -26.6875 40.363281 -26.113281 38.65625 -25.0625 C 36.945312 -24.019531 35.585938 -22.46875 34.578125 -20.40625 C 33.578125 -18.351562 33.078125 -15.664062 33.078125 -12.34375 L 33.34375 1.046875 C 33.34375 4.109375 32.988281 6.972656 32.28125 9.640625 C 31.582031 12.316406 30.335938 14.703125 28.546875 16.796875 C 26.753906 18.898438 24.300781 20.738281 21.1875 22.3125 C 18.082031 23.882812 14.125 25.15625 9.3125 26.125 C 8.96875 26.207031 8.640625 26.269531 8.328125 26.3125 C 8.023438 26.351562 7.613281 26.375 7.09375 26.375 Z M 7.09375 26.375 "/></g></g></g><path stroke-linecap="butt" transform="matrix(0.75, 0, 0, 0.75, 55.777119, 222.442003)" fill="none" stroke-linejoin="miter" d="M 0.00029935 1.999204 L 344.19303 1.999204 " stroke="#ffffff" stroke-width="4" stroke-opacity="1" stroke-miterlimit="4"/><g fill="#ffffff" fill-opacity="1"><g transform="translate(69.873836, 281.507341)"><g><path d="M 6.46875 0 C 5.59375 0 4.878906 -0.269531 4.328125 -0.8125 C 3.785156 -1.363281 3.515625 -2.046875 3.515625 -2.859375 L 3.515625 -29.9375 C 3.515625 -30.75 3.785156 -31.425781 4.328125 -31.96875 C 4.878906 -32.519531 5.5625 -32.796875 6.375 -32.796875 L 21.59375 -32.796875 C 22.40625 -32.796875 23.082031 -32.535156 23.625 -32.015625 C 24.175781 -31.503906 24.453125 -30.84375 24.453125 -30.03125 C 24.453125 -29.34375 24.175781 -28.734375 23.625 -28.203125 C 23.082031 -27.671875 22.40625 -27.40625 21.59375 -27.40625 L 8.953125 -27.40625 L 9.375 -27.96875 L 9.375 -18.546875 L 9.046875 -19.15625 L 19.484375 -19.15625 C 20.296875 -19.15625 20.972656 -18.894531 21.515625 -18.375 C 22.066406 -17.863281 22.34375 -17.203125 22.34375 -16.390625 C 22.34375 -15.703125 22.066406 -15.09375 21.515625 -14.5625 C 20.972656 -14.03125 20.296875 -13.765625 19.484375 -13.765625 L 8.953125 -13.765625 L 9.375 -14.1875 L 9.375 -2.859375 C 9.375 -2.046875 9.082031 -1.363281 8.5 -0.8125 C 7.925781 -0.269531 7.25 0 6.46875 0 Z M 6.46875 0 "/></g></g></g><g fill="#ffffff" fill-opacity="1"><g transform="translate(96.197786, 281.507341)"><g><path d="M 17.5625 -32.796875 C 19.8125 -32.796875 21.8125 -32.375 23.5625 -31.53125 C 25.3125 -30.6875 26.785156 -29.503906 27.984375 -27.984375 C 29.191406 -26.472656 30.097656 -24.722656 30.703125 -22.734375 C 31.316406 -20.753906 31.625 -18.640625 31.625 -16.390625 C 31.625 -13.359375 31.078125 -10.601562 29.984375 -8.125 C 28.890625 -5.644531 27.300781 -3.671875 25.21875 -2.203125 C 23.144531 -0.734375 20.59375 0 17.5625 0 L 6.375 0 C 5.5625 0 4.878906 -0.269531 4.328125 -0.8125 C 3.785156 -1.363281 3.515625 -2.046875 3.515625 -2.859375 L 3.515625 -29.9375 C 3.515625 -30.75 3.785156 -31.425781 4.328125 -31.96875 C 4.878906 -32.519531 5.5625 -32.796875 6.375 -32.796875 Z M 17.09375 -5.390625 C 19.0625 -5.390625 20.671875 -5.894531 21.921875 -6.90625 C 23.171875 -7.925781 24.082031 -9.269531 24.65625 -10.9375 C 25.238281 -12.601562 25.53125 -14.421875 25.53125 -16.390625 C 25.53125 -17.859375 25.363281 -19.253906 25.03125 -20.578125 C 24.707031 -21.910156 24.203125 -23.082031 23.515625 -24.09375 C 22.828125 -25.113281 21.953125 -25.921875 20.890625 -26.515625 C 19.828125 -27.109375 18.5625 -27.40625 17.09375 -27.40625 L 8.90625 -27.40625 L 9.375 -27.828125 L 9.375 -4.875 L 9.09375 -5.390625 Z M 17.09375 -5.390625 "/></g></g></g><g fill="#ffffff" fill-opacity="1"><g transform="translate(129.68822, 281.507341)"><g><path d="M 21.59375 -5.484375 C 22.40625 -5.484375 23.082031 -5.222656 23.625 -4.703125 C 24.175781 -4.191406 24.453125 -3.53125 24.453125 -2.71875 C 24.453125 -1.9375 24.175781 -1.285156 23.625 -0.765625 C 23.082031 -0.253906 22.40625 0 21.59375 0 L 6.375 0 C 5.5625 0 4.878906 -0.269531 4.328125 -0.8125 C 3.785156 -1.363281 3.515625 -2.046875 3.515625 -2.859375 L 3.515625 -29.9375 C 3.515625 -30.75 3.796875 -31.425781 4.359375 -31.96875 C 4.921875 -32.519531 5.640625 -32.796875 6.515625 -32.796875 C 7.265625 -32.796875 7.925781 -32.519531 8.5 -31.96875 C 9.082031 -31.425781 9.375 -30.75 9.375 -29.9375 L 9.375 -4.6875 L 8.34375 -5.484375 Z M 21.59375 -5.484375 "/></g></g></g><g fill="#ffffff" fill-opacity="1"><g transform="translate(156.01217, 281.507341)"><g><path d="M 23.5625 -25.53125 C 24.375 -25.53125 25.046875 -25.265625 25.578125 -24.734375 C 26.109375 -24.203125 26.375 -23.515625 26.375 -22.671875 L 26.375 -2.859375 C 26.375 -2.046875 26.109375 -1.363281 25.578125 -0.8125 C 25.046875 -0.269531 24.375 0 23.5625 0 C 22.75 0 22.078125 -0.269531 21.546875 -0.8125 C 21.015625 -1.363281 20.75 -2.046875 20.75 -2.859375 L 20.75 -5.15625 L 21.78125 -4.734375 C 21.78125 -4.328125 21.5625 -3.832031 21.125 -3.25 C 20.6875 -2.675781 20.09375 -2.109375 19.34375 -1.546875 C 18.59375 -0.984375 17.707031 -0.503906 16.6875 -0.109375 C 15.675781 0.273438 14.578125 0.46875 13.390625 0.46875 C 11.242188 0.46875 9.296875 -0.0820312 7.546875 -1.1875 C 5.796875 -2.300781 4.410156 -3.832031 3.390625 -5.78125 C 2.378906 -7.738281 1.875 -9.976562 1.875 -12.5 C 1.875 -15.0625 2.378906 -17.316406 3.390625 -19.265625 C 4.410156 -21.222656 5.78125 -22.753906 7.5 -23.859375 C 9.21875 -24.972656 11.117188 -25.53125 13.203125 -25.53125 C 14.546875 -25.53125 15.78125 -25.328125 16.90625 -24.921875 C 18.03125 -24.515625 19.003906 -24 19.828125 -23.375 C 20.660156 -22.75 21.300781 -22.113281 21.75 -21.46875 C 22.207031 -20.832031 22.4375 -20.296875 22.4375 -19.859375 L 20.75 -19.25 L 20.75 -22.671875 C 20.75 -23.484375 21.015625 -24.160156 21.546875 -24.703125 C 22.078125 -25.253906 22.75 -25.53125 23.5625 -25.53125 Z M 14.09375 -4.6875 C 15.46875 -4.6875 16.671875 -5.03125 17.703125 -5.71875 C 18.734375 -6.40625 19.535156 -7.34375 20.109375 -8.53125 C 20.691406 -9.71875 20.984375 -11.039062 20.984375 -12.5 C 20.984375 -14 20.691406 -15.34375 20.109375 -16.53125 C 19.535156 -17.71875 18.734375 -18.65625 17.703125 -19.34375 C 16.671875 -20.03125 15.46875 -20.375 14.09375 -20.375 C 12.75 -20.375 11.5625 -20.03125 10.53125 -19.34375 C 9.507812 -18.65625 8.707031 -17.71875 8.125 -16.53125 C 7.550781 -15.34375 7.265625 -14 7.265625 -12.5 C 7.265625 -11.039062 7.550781 -9.71875 8.125 -8.53125 C 8.707031 -7.34375 9.507812 -6.40625 10.53125 -5.71875 C 11.5625 -5.03125 12.75 -4.6875 14.09375 -4.6875 Z M 14.09375 -4.6875 "/></g></g></g><g fill="#ffffff" fill-opacity="1"><g transform="translate(185.427547, 281.507341)"><g><path d="M 16.203125 -25.53125 C 18.703125 -25.53125 20.546875 -24.925781 21.734375 -23.71875 C 22.921875 -22.519531 23.703125 -20.96875 24.078125 -19.0625 L 23.28125 -19.484375 L 23.65625 -20.234375 C 24.03125 -20.953125 24.609375 -21.722656 25.390625 -22.546875 C 26.171875 -23.378906 27.113281 -24.082031 28.21875 -24.65625 C 29.332031 -25.238281 30.578125 -25.53125 31.953125 -25.53125 C 34.191406 -25.53125 35.894531 -25.046875 37.0625 -24.078125 C 38.238281 -23.109375 39.046875 -21.816406 39.484375 -20.203125 C 39.921875 -18.597656 40.140625 -16.8125 40.140625 -14.84375 L 40.140625 -2.859375 C 40.140625 -2.046875 39.875 -1.363281 39.34375 -0.8125 C 38.8125 -0.269531 38.140625 0 37.328125 0 C 36.515625 0 35.84375 -0.269531 35.3125 -0.8125 C 34.789062 -1.363281 34.53125 -2.046875 34.53125 -2.859375 L 34.53125 -14.84375 C 34.53125 -15.875 34.40625 -16.800781 34.15625 -17.625 C 33.90625 -18.457031 33.453125 -19.125 32.796875 -19.625 C 32.140625 -20.125 31.203125 -20.375 29.984375 -20.375 C 28.796875 -20.375 27.78125 -20.125 26.9375 -19.625 C 26.09375 -19.125 25.457031 -18.457031 25.03125 -17.625 C 24.613281 -16.800781 24.40625 -15.875 24.40625 -14.84375 L 24.40625 -2.859375 C 24.40625 -2.046875 24.140625 -1.363281 23.609375 -0.8125 C 23.078125 -0.269531 22.40625 0 21.59375 0 C 20.78125 0 20.109375 -0.269531 19.578125 -0.8125 C 19.046875 -1.363281 18.78125 -2.046875 18.78125 -2.859375 L 18.78125 -14.84375 C 18.78125 -15.875 18.65625 -16.800781 18.40625 -17.625 C 18.15625 -18.457031 17.703125 -19.125 17.046875 -19.625 C 16.390625 -20.125 15.453125 -20.375 14.234375 -20.375 C 13.046875 -20.375 12.03125 -20.125 11.1875 -19.625 C 10.351562 -19.125 9.722656 -18.457031 9.296875 -17.625 C 8.878906 -16.800781 8.671875 -15.875 8.671875 -14.84375 L 8.671875 -2.859375 C 8.671875 -2.046875 8.40625 -1.363281 7.875 -0.8125 C 7.34375 -0.269531 6.671875 0 5.859375 0 C 5.046875 0 4.375 -0.269531 3.84375 -0.8125 C 3.3125 -1.363281 3.046875 -2.046875 3.046875 -2.859375 L 3.046875 -22.203125 C 3.046875 -23.015625 3.3125 -23.691406 3.84375 -24.234375 C 4.375 -24.785156 5.046875 -25.0625 5.859375 -25.0625 C 6.671875 -25.0625 7.34375 -24.785156 7.875 -24.234375 C 8.40625 -23.691406 8.671875 -23.015625 8.671875 -22.203125 L 8.671875 -20.1875 L 7.96875 -20.328125 C 8.25 -20.859375 8.640625 -21.425781 9.140625 -22.03125 C 9.640625 -22.644531 10.242188 -23.21875 10.953125 -23.75 C 11.671875 -24.28125 12.46875 -24.707031 13.34375 -25.03125 C 14.21875 -25.363281 15.171875 -25.53125 16.203125 -25.53125 Z M 16.203125 -25.53125 "/></g></g></g><g fill="#ffffff" fill-opacity="1"><g transform="translate(228.613816, 281.507341)"><g><path d="M 16.015625 -25.53125 C 18.203125 -25.53125 20.160156 -24.972656 21.890625 -23.859375 C 23.628906 -22.753906 25.003906 -21.234375 26.015625 -19.296875 C 27.035156 -17.359375 27.546875 -15.109375 27.546875 -12.546875 C 27.546875 -9.992188 27.035156 -7.738281 26.015625 -5.78125 C 25.003906 -3.832031 23.644531 -2.300781 21.9375 -1.1875 C 20.238281 -0.0820312 18.328125 0.46875 16.203125 0.46875 C 14.953125 0.46875 13.78125 0.265625 12.6875 -0.140625 C 11.601562 -0.546875 10.644531 -1.0625 9.8125 -1.6875 C 8.988281 -2.3125 8.347656 -2.941406 7.890625 -3.578125 C 7.441406 -4.222656 7.21875 -4.765625 7.21875 -5.203125 L 8.671875 -5.8125 L 8.671875 -2.390625 C 8.671875 -1.578125 8.40625 -0.894531 7.875 -0.34375 C 7.34375 0.195312 6.671875 0.46875 5.859375 0.46875 C 5.046875 0.46875 4.375 0.203125 3.84375 -0.328125 C 3.3125 -0.859375 3.046875 -1.546875 3.046875 -2.390625 L 3.046875 -31.8125 C 3.046875 -32.625 3.3125 -33.300781 3.84375 -33.84375 C 4.375 -34.394531 5.046875 -34.671875 5.859375 -34.671875 C 6.671875 -34.671875 7.34375 -34.394531 7.875 -33.84375 C 8.40625 -33.300781 8.671875 -32.625 8.671875 -31.8125 L 8.671875 -19.90625 L 7.875 -20.328125 C 7.875 -20.734375 8.09375 -21.222656 8.53125 -21.796875 C 8.96875 -22.378906 9.5625 -22.957031 10.3125 -23.53125 C 11.0625 -24.113281 11.925781 -24.59375 12.90625 -24.96875 C 13.882812 -25.34375 14.921875 -25.53125 16.015625 -25.53125 Z M 15.3125 -20.375 C 13.9375 -20.375 12.734375 -20.03125 11.703125 -19.34375 C 10.679688 -18.65625 9.878906 -17.722656 9.296875 -16.546875 C 8.722656 -15.378906 8.4375 -14.046875 8.4375 -12.546875 C 8.4375 -11.085938 8.722656 -9.753906 9.296875 -8.546875 C 9.878906 -7.347656 10.679688 -6.40625 11.703125 -5.71875 C 12.734375 -5.03125 13.9375 -4.6875 15.3125 -4.6875 C 16.6875 -4.6875 17.878906 -5.03125 18.890625 -5.71875 C 19.910156 -6.40625 20.707031 -7.347656 21.28125 -8.546875 C 21.863281 -9.753906 22.15625 -11.085938 22.15625 -12.546875 C 22.15625 -14.046875 21.863281 -15.378906 21.28125 -16.546875 C 20.707031 -17.722656 19.910156 -18.65625 18.890625 -19.34375 C 17.878906 -20.03125 16.6875 -20.375 15.3125 -20.375 Z M 15.3125 -20.375 "/></g></g></g><g fill="#ffffff" fill-opacity="1"><g transform="translate(258.029193, 281.507341)"><g><path d="M 23.5625 -34.671875 C 24.375 -34.671875 25.046875 -34.40625 25.578125 -33.875 C 26.109375 -33.34375 26.375 -32.65625 26.375 -31.8125 L 26.375 -2.859375 C 26.375 -2.046875 26.109375 -1.363281 25.578125 -0.8125 C 25.046875 -0.269531 24.375 0 23.5625 0 C 22.75 0 22.078125 -0.269531 21.546875 -0.8125 C 21.015625 -1.363281 20.75 -2.046875 20.75 -2.859375 L 20.75 -5.15625 L 21.78125 -4.734375 C 21.78125 -4.328125 21.5625 -3.832031 21.125 -3.25 C 20.6875 -2.675781 20.09375 -2.109375 19.34375 -1.546875 C 18.59375 -0.984375 17.707031 -0.503906 16.6875 -0.109375 C 15.675781 0.273438 14.578125 0.46875 13.390625 0.46875 C 11.242188 0.46875 9.296875 -0.0820312 7.546875 -1.1875 C 5.796875 -2.300781 4.410156 -3.832031 3.390625 -5.78125 C 2.378906 -7.738281 1.875 -9.976562 1.875 -12.5 C 1.875 -15.0625 2.378906 -17.316406 3.390625 -19.265625 C 4.410156 -21.222656 5.78125 -22.753906 7.5 -23.859375 C 9.21875 -24.972656 11.117188 -25.53125 13.203125 -25.53125 C 14.546875 -25.53125 15.78125 -25.328125 16.90625 -24.921875 C 18.03125 -24.515625 19.003906 -24 19.828125 -23.375 C 20.660156 -22.75 21.300781 -22.113281 21.75 -21.46875 C 22.207031 -20.832031 22.4375 -20.296875 22.4375 -19.859375 L 20.75 -19.25 L 20.75 -31.8125 C 20.75 -32.625 21.015625 -33.300781 21.546875 -33.84375 C 22.078125 -34.394531 22.75 -34.671875 23.5625 -34.671875 Z M 14.09375 -4.6875 C 15.46875 -4.6875 16.671875 -5.03125 17.703125 -5.71875 C 18.734375 -6.40625 19.535156 -7.34375 20.109375 -8.53125 C 20.691406 -9.71875 20.984375 -11.039062 20.984375 -12.5 C 20.984375 -14 20.691406 -15.34375 20.109375 -16.53125 C 19.535156 -17.71875 18.734375 -18.65625 17.703125 -19.34375 C 16.671875 -20.03125 15.46875 -20.375 14.09375 -20.375 C 12.75 -20.375 11.5625 -20.03125 10.53125 -19.34375 C 9.507812 -18.65625 8.707031 -17.71875 8.125 -16.53125 C 7.550781 -15.34375 7.265625 -14 7.265625 -12.5 C 7.265625 -11.039062 7.550781 -9.71875 8.125 -8.53125 C 8.707031 -7.34375 9.507812 -6.40625 10.53125 -5.71875 C 11.5625 -5.03125 12.75 -4.6875 14.09375 -4.6875 Z M 14.09375 -4.6875 "/></g></g></g><g fill="#ffffff" fill-opacity="1"><g transform="translate(287.44457, 281.507341)"><g><path d="M 23.5625 -25.53125 C 24.375 -25.53125 25.046875 -25.265625 25.578125 -24.734375 C 26.109375 -24.203125 26.375 -23.515625 26.375 -22.671875 L 26.375 -2.859375 C 26.375 -2.046875 26.109375 -1.363281 25.578125 -0.8125 C 25.046875 -0.269531 24.375 0 23.5625 0 C 22.75 0 22.078125 -0.269531 21.546875 -0.8125 C 21.015625 -1.363281 20.75 -2.046875 20.75 -2.859375 L 20.75 -5.15625 L 21.78125 -4.734375 C 21.78125 -4.328125 21.5625 -3.832031 21.125 -3.25 C 20.6875 -2.675781 20.09375 -2.109375 19.34375 -1.546875 C 18.59375 -0.984375 17.707031 -0.503906 16.6875 -0.109375 C 15.675781 0.273438 14.578125 0.46875 13.390625 0.46875 C 11.242188 0.46875 9.296875 -0.0820312 7.546875 -1.1875 C 5.796875 -2.300781 4.410156 -3.832031 3.390625 -5.78125 C 2.378906 -7.738281 1.875 -9.976562 1.875 -12.5 C 1.875 -15.0625 2.378906 -17.316406 3.390625 -19.265625 C 4.410156 -21.222656 5.78125 -22.753906 7.5 -23.859375 C 9.21875 -24.972656 11.117188 -25.53125 13.203125 -25.53125 C 14.546875 -25.53125 15.78125 -25.328125 16.90625 -24.921875 C 18.03125 -24.515625 19.003906 -24 19.828125 -23.375 C 20.660156 -22.75 21.300781 -22.113281 21.75 -21.46875 C 22.207031 -20.832031 22.4375 -20.296875 22.4375 -19.859375 L 20.75 -19.25 L 20.75 -22.671875 C 20.75 -23.484375 21.015625 -24.160156 21.546875 -24.703125 C 22.078125 -25.253906 22.75 -25.53125 23.5625 -25.53125 Z M 14.09375 -4.6875 C 15.46875 -4.6875 16.671875 -5.03125 17.703125 -5.71875 C 18.734375 -6.40625 19.535156 -7.34375 20.109375 -8.53125 C 20.691406 -9.71875 20.984375 -11.039062 20.984375 -12.5 C 20.984375 -14 20.691406 -15.34375 20.109375 -16.53125 C 19.535156 -17.71875 18.734375 -18.65625 17.703125 -19.34375 C 16.671875 -20.03125 15.46875 -20.375 14.09375 -20.375 C 12.75 -20.375 11.5625 -20.03125 10.53125 -19.34375 C 9.507812 -18.65625 8.707031 -17.71875 8.125 -16.53125 C 7.550781 -15.34375 7.265625 -14 7.265625 -12.5 C 7.265625 -11.039062 7.550781 -9.71875 8.125 -8.53125 C 8.707031 -7.34375 9.507812 -6.40625 10.53125 -5.71875 C 11.5625 -5.03125 12.75 -4.6875 14.09375 -4.6875 Z M 14.09375 -4.6875 "/></g></g></g></svg>